<mxfile host="Electron" modified="2025-08-15T20:40:48.430Z" agent="Mozilla/5.0 (Windows NT 10.0; Win64; x64) AppleWebKit/537.36 (KHTML, like Gecko) draw.io/23.0.2 Chrome/120.0.6099.109 Electron/28.1.0 Safari/537.36" etag="kTdBWaPXFoE22pKibe5y" version="23.0.2" type="device">
  <diagram name="Page-1" id="2un9g41dxUAmrrXBXDzN">
    <mxGraphModel dx="989" dy="577" grid="0" gridSize="10" guides="1" tooltips="1" connect="1" arrows="1" fold="1" page="1" pageScale="1" pageWidth="1169" pageHeight="827" math="0" shadow="0">
      <root>
        <mxCell id="0" />
        <mxCell id="1" parent="0" />
        <mxCell id="0Lodwt2PpQIvKMGvRha5-10" value="" style="rounded=0;whiteSpace=wrap;html=1;fillColor=#dae8fc;strokeColor=#6c8ebf;" parent="1" vertex="1">
          <mxGeometry x="570" y="140" width="420" height="330" as="geometry" />
        </mxCell>
        <mxCell id="0Lodwt2PpQIvKMGvRha5-17" value="" style="rounded=0;whiteSpace=wrap;html=1;fillColor=none;dashed=1;strokeColor=default;" parent="1" vertex="1">
          <mxGeometry x="580" y="340" width="400" height="120" as="geometry" />
        </mxCell>
        <mxCell id="0Lodwt2PpQIvKMGvRha5-16" value="" style="rounded=0;whiteSpace=wrap;html=1;fillColor=none;dashed=1;strokeColor=default;" parent="1" vertex="1">
          <mxGeometry x="580" y="180" width="200" height="120" as="geometry" />
        </mxCell>
        <mxCell id="0Lodwt2PpQIvKMGvRha5-9" value="" style="rounded=0;whiteSpace=wrap;html=1;fillColor=#f8cecc;strokeColor=#b85450;" parent="1" vertex="1">
          <mxGeometry x="330" y="140" width="220" height="170" as="geometry" />
        </mxCell>
        <mxCell id="0Lodwt2PpQIvKMGvRha5-15" value="" style="rounded=0;whiteSpace=wrap;html=1;fillColor=none;dashed=1;strokeColor=default;" parent="1" vertex="1">
          <mxGeometry x="340" y="180" width="200" height="120" as="geometry" />
        </mxCell>
        <mxCell id="0Lodwt2PpQIvKMGvRha5-1" value="&lt;b&gt;&lt;i&gt;OthelloGameplaySPA&lt;/i&gt;&lt;/b&gt;&lt;br&gt;(React + Vite SPA)" style="rounded=0;whiteSpace=wrap;html=1;" parent="1" vertex="1">
          <mxGeometry x="360" y="200" width="160" height="80" as="geometry" />
        </mxCell>
        <mxCell id="0Lodwt2PpQIvKMGvRha5-2" value="&lt;b&gt;&lt;i&gt;OthelloGameAPI&lt;/i&gt;&lt;/b&gt;&lt;br&gt;(ASP.NET Web API)" style="rounded=0;whiteSpace=wrap;html=1;" parent="1" vertex="1">
          <mxGeometry x="600" y="200" width="160" height="80" as="geometry" />
        </mxCell>
        <mxCell id="0Lodwt2PpQIvKMGvRha5-3" value="&lt;b&gt;&lt;i&gt;OthelloOpponentAPI&lt;/i&gt;&lt;/b&gt;&lt;br&gt;(Flask API)" style="rounded=0;whiteSpace=wrap;html=1;" parent="1" vertex="1">
          <mxGeometry x="600" y="360" width="160" height="80" as="geometry" />
        </mxCell>
        <mxCell id="0Lodwt2PpQIvKMGvRha5-5" value="&lt;b&gt;&lt;i&gt;OthelloCNN&lt;/i&gt;&lt;/b&gt;&lt;br&gt;(PyTorch Model)" style="ellipse;whiteSpace=wrap;html=1;" parent="1" vertex="1">
          <mxGeometry x="800" y="360" width="160" height="80" as="geometry" />
        </mxCell>
        <mxCell id="0Lodwt2PpQIvKMGvRha5-6" value="" style="endArrow=none;html=1;rounded=0;" parent="1" source="0Lodwt2PpQIvKMGvRha5-1" target="0Lodwt2PpQIvKMGvRha5-2" edge="1">
          <mxGeometry width="50" height="50" relative="1" as="geometry">
            <mxPoint x="600" y="330" as="sourcePoint" />
            <mxPoint x="650" y="280" as="targetPoint" />
          </mxGeometry>
        </mxCell>
        <mxCell id="0Lodwt2PpQIvKMGvRha5-7" value="" style="endArrow=none;html=1;rounded=0;" parent="1" source="0Lodwt2PpQIvKMGvRha5-3" target="0Lodwt2PpQIvKMGvRha5-2" edge="1">
          <mxGeometry width="50" height="50" relative="1" as="geometry">
            <mxPoint x="530" y="250" as="sourcePoint" />
            <mxPoint x="610" y="250" as="targetPoint" />
          </mxGeometry>
        </mxCell>
        <mxCell id="0Lodwt2PpQIvKMGvRha5-8" value="" style="endArrow=none;html=1;rounded=0;" parent="1" source="0Lodwt2PpQIvKMGvRha5-5" target="0Lodwt2PpQIvKMGvRha5-3" edge="1">
          <mxGeometry width="50" height="50" relative="1" as="geometry">
            <mxPoint x="690" y="370" as="sourcePoint" />
            <mxPoint x="690" y="290" as="targetPoint" />
          </mxGeometry>
        </mxCell>
        <mxCell id="0Lodwt2PpQIvKMGvRha5-11" value="Front End" style="text;html=1;strokeColor=none;fillColor=none;align=center;verticalAlign=middle;whiteSpace=wrap;rounded=0;" parent="1" vertex="1">
          <mxGeometry x="360" y="100" width="160" height="40" as="geometry" />
        </mxCell>
        <mxCell id="0Lodwt2PpQIvKMGvRha5-12" value="Back End" style="text;html=1;strokeColor=none;fillColor=none;align=center;verticalAlign=middle;whiteSpace=wrap;rounded=0;" parent="1" vertex="1">
          <mxGeometry x="600" y="100" width="160" height="40" as="geometry" />
        </mxCell>
        <mxCell id="0Lodwt2PpQIvKMGvRha5-18" value="&lt;b&gt;container&lt;/b&gt;" style="text;html=1;strokeColor=none;fillColor=none;align=left;verticalAlign=middle;whiteSpace=wrap;rounded=0;fontStyle=0" parent="1" vertex="1">
          <mxGeometry x="580" y="160" width="100" height="20" as="geometry" />
        </mxCell>
        <mxCell id="0Lodwt2PpQIvKMGvRha5-19" value="&lt;b&gt;container&lt;/b&gt;" style="text;html=1;strokeColor=none;fillColor=none;align=left;verticalAlign=middle;whiteSpace=wrap;rounded=0;fontStyle=0" parent="1" vertex="1">
          <mxGeometry x="340" y="160" width="100" height="20" as="geometry" />
        </mxCell>
        <mxCell id="0Lodwt2PpQIvKMGvRha5-20" value="&lt;b&gt;container&lt;/b&gt;" style="text;html=1;strokeColor=none;fillColor=none;align=left;verticalAlign=middle;whiteSpace=wrap;rounded=0;fontStyle=0" parent="1" vertex="1">
          <mxGeometry x="580" y="320" width="100" height="20" as="geometry" />
        </mxCell>
      </root>
    </mxGraphModel>
  </diagram>
</mxfile>
